<svg width="24" height="24" viewBox="0 0 24 24" fill="none" xmlns="http://www.w3.org/2000/svg">
<path fill-rule="evenodd" clip-rule="evenodd" d="M12.9733 22.3819C15.3954 20.7589 21.5001 16.1114 21.5001 10.5C21.5001 5.25329 17.2468 1 12.0001 1C6.75342 1 2.50012 5.25329 2.50012 10.5C2.50012 16.1114 8.60489 20.7589 11.0269 22.3819C11.6219 22.7806 12.3783 22.7806 12.9733 22.3819ZM12.0001 13.5C13.657 13.5 15.0001 12.1569 15.0001 10.5C15.0001 8.84315 13.657 7.5 12.0001 7.5C10.3433 7.5 9.00012 8.84315 9.00012 10.5C9.00012 12.1569 10.3433 13.5 12.0001 13.5Z" fill="#757575"/>
</svg>
